<?xml version="1.0" encoding="UTF-8"?>
<!-- Generator: Adobe Illustrator 16.0.4, SVG Export Plug-In . SVG Version: 6.00 Build 0)  -->
<!DOCTYPE svg PUBLIC "-//W3C//DTD SVG 1.1//EN" "http://www.w3.org/Graphics/SVG/1.1/DTD/svg11.dtd">
<svg version="1.1" id="Layer_1" xmlns="http://www.w3.org/2000/svg" xmlns:xlink="http://www.w3.org/1999/xlink" x="0px" y="0px" width="250px" height="100px" viewBox="0 0 250 100" enable-background="new 0 0 250 100" xml:space="preserve">
<g id="_x31_gvsq7.tif">
	<g>
		<path fill="#C1C1C1" d="M125.639,43.13c1.604-3.662,3.147-7.175,4.684-10.69c1.729-3.957,3.447-7.916,5.177-11.871    c1.966-4.499,5.501-7.012,10.269-7.586c12.428-1.496,24.877-2.85,37.318-4.242c0.68-0.076,1.154-0.265,1.441-0.938    c1.174-2.752,3.375-3.952,6.268-4.267c7.896-0.86,15.786-1.795,23.68-2.697c1.018-0.117,2.037-0.236,3.059-0.311    c1.199-0.087,2.391-0.032,3.142,1.108c0.761,1.153,0.323,2.273-0.307,3.295c-2.269,3.676-4.568,7.331-6.863,10.99    c-3.247,5.178-6.53,10.335-9.739,15.538c-1.298,2.103-3.131,3.254-5.531,3.491c-4.664,0.457-9.334,0.854-14.002,1.274    c-1.641,0.147-3.285,0.261-4.92,0.463c-0.36,0.044-0.795,0.325-1.004,0.629c-0.496,0.72-0.883,1.517-1.306,2.286    c-1.315,2.385-3.304,3.75-6.032,4.033c-6.48,0.671-12.962,1.355-19.443,2.032c-3.094,0.323-6.188,0.657-9.286,0.948    c-1.005,0.095-1.608,0.478-2.035,1.479c-3.159,7.404-6.373,14.783-9.613,22.15c-0.586,1.335-1.255,2.66-2.086,3.852    c-1.53,2.188-3.762,2.196-5.341,0.029c-0.856-1.175-1.593-2.467-2.193-3.792c-3.336-7.364-6.636-14.743-9.883-22.146    c-0.444-1.011-1.014-1.471-2.083-1.579c-7.831-0.795-15.658-1.627-23.487-2.445c-1.71-0.179-3.422-0.358-5.135-0.518    c-2.771-0.258-4.989-1.54-6.083-4.074c-1.029-2.386-2.611-3.085-5.099-3.213c-5.407-0.277-10.798-0.888-16.191-1.412    c-2.401-0.234-4.22-1.399-5.526-3.498c-5.319-8.546-10.698-17.055-16.04-25.586c-0.424-0.678-0.833-1.393-1.083-2.145    c-0.525-1.58,0.292-2.983,1.948-3.1c1.48-0.105,2.992,0.066,4.477,0.233c8.112,0.915,16.219,1.868,24.33,2.804    c2.435,0.281,4.3,1.41,5.34,3.676c0.445,0.969,1.062,1.347,2.154,1.467c11.318,1.237,22.627,2.541,33.938,3.845    c1.633,0.188,3.3,0.308,4.875,0.738c3.843,1.05,6.671,3.376,8.288,7.094c3.108,7.146,6.241,14.282,9.364,21.421    C125.231,42.261,125.404,42.62,125.639,43.13z M119.806,62.422c0.04,0.012,0.079,0.023,0.119,0.036    c0.03,0.328,0,0.675,0.099,0.981c1.14,3.533,2.795,6.821,4.929,9.854c0.562,0.803,1.303,0.741,1.882-0.154    c0.827-1.285,1.577-2.641,2.192-4.039c3.224-7.334,6.423-14.679,9.56-22.05c0.614-1.445,1.608-2.102,3.063-2.255    c9.756-1.028,19.511-2.056,29.268-3.073c1.895-0.198,3.292-1.143,4.25-2.75c0.637-1.068,1.248-2.154,1.812-3.261    c0.301-0.585,0.681-0.82,1.35-0.876c6.348-0.537,12.689-1.118,19.034-1.677c1.862-0.164,3.513-0.691,4.577-2.388    c5.483-8.743,10.981-17.478,16.445-26.233c0.34-0.544,0.432-1.244,0.639-1.872c-0.635-0.076-1.282-0.276-1.901-0.207    c-8.366,0.933-16.719,1.995-25.097,2.816c-3.045,0.298-5.217,1.377-6.364,4.307c-0.161,0.412-0.832,0.828-1.31,0.883    c-12.543,1.458-25.092,2.87-37.64,4.284c-4.13,0.465-7.509,2.206-9.243,6.12c-5.705,12.875-11.31,25.796-16.92,38.714    C120.166,60.468,120.048,61.473,119.806,62.422z M118.293,59.968c2-4.579,3.926-9.034,5.903-13.467    c0.314-0.707,0.276-1.271-0.025-1.955c-3.402-7.733-6.781-15.478-10.162-23.22c-1.656-3.792-4.623-5.852-8.641-6.442    c-2.353-0.346-4.723-0.566-7.087-0.835c-10.108-1.153-20.211-2.349-30.33-3.404c-1.573-0.164-2.452-0.747-3.007-2.127    c-0.837-2.083-2.528-2.865-4.661-3.076c-3.496-0.345-6.981-0.793-10.471-1.194c-5.308-0.61-10.614-1.23-15.926-1.807    c-0.543-0.059-1.116,0.151-1.675,0.237c0.159,0.535,0.281,1.083,0.488,1.6c0.148,0.368,0.405,0.693,0.62,1.034    c5.178,8.242,10.396,16.459,15.507,24.742c1.245,2.018,2.897,2.935,5.183,3.124c6.31,0.52,12.613,1.126,18.922,1.66    c0.674,0.057,1.045,0.305,1.343,0.885c0.568,1.106,1.179,2.191,1.813,3.26c0.911,1.536,2.239,2.51,4.038,2.712    c2.946,0.332,5.897,0.614,8.845,0.924c6.916,0.727,13.832,1.448,20.744,2.193c1.357,0.146,2.333,0.77,2.902,2.145    c1.667,4.02,3.442,7.995,5.179,11.984C117.935,59.261,118.099,59.568,118.293,59.968z"/>
		<path fill="#C1C1C1" d="M164.632,99.379c1.142-2.87,2.202-5.541,3.325-8.365c-0.482-0.041-0.788-0.09-1.096-0.09    c-11.903-0.004-23.807-0.008-35.711,0.018c-0.504,0-1.094,0.174-1.502,0.467c-3.448,2.478-6.857,5.013-10.305,7.494    c-0.38,0.273-0.919,0.443-1.389,0.455c-1.385,0.027-3.061,0.416-4.079-0.215c-1.012-0.627-1.39-2.308-2-3.547    c-0.922-1.871-1.809-3.759-2.703-5.644c-0.152-0.318-0.273-0.653-0.496-1.193c1.437,0,2.7-0.067,3.945,0.044    c0.333,0.031,0.716,0.566,0.904,0.953c1.033,2.143,2.009,4.312,3.017,6.467c0.18,0.385,0.412,0.745,0.681,1.227    c0.415-0.303,0.738-0.523,1.044-0.766c2.967-2.328,5.954-4.633,8.882-7.01c0.855-0.695,1.727-0.953,2.808-0.951    c18.86,0.021,37.726,0.014,56.587,0.016c11.464,0.002,22.93,0.007,34.393,0.01c0.399,0.001,0.799,0,1.199,0    c-0.035,1.634-0.564,2.173-2.062,2.173c-9.633,0-19.266,0.013-28.897-0.019c-0.94-0.004-1.448,0.266-1.806,1.168    c-0.861,2.175-1.855,4.298-2.751,6.462c-0.261,0.634-0.603,0.905-1.302,0.862c-0.944-0.06-1.894-0.015-3.123-0.015    c1.205-2.85,2.341-5.528,3.541-8.366c-0.584-0.041-0.936-0.09-1.284-0.091c-3.7-0.005-7.399,0.024-11.099-0.021    c-0.976-0.012-1.451,0.392-1.78,1.257c-0.806,2.12-1.691,4.209-2.507,6.323c-0.243,0.634-0.582,0.943-1.293,0.91    C166.792,99.342,165.807,99.379,164.632,99.379z"/>
		<path fill="#C1C1C1" d="M59.155,96.945c0.468,0.117,0.976,0.35,1.483,0.353c4.688,0.028,9.375,0.063,14.062-0.006    c1.911-0.028,2.188-0.392,2.789-1.892c1.065-2.658,1.071-2.655,3.991-2.655c0.438,0,0.876,0,1.518,0    c-1.02,2.053-1.532,4.26-3.206,5.739c-0.645,0.568-1.755,0.845-2.657,0.854c-6.7,0.07-13.402,0.054-20.103,0.03    c-1.993-0.008-2.951-1.445-2.195-3.266c0.686-1.655,1.407-3.302,2.208-4.902c0.926-1.852,2.589-2.455,4.557-2.455    c7.471,0.002,14.94-0.008,22.411-0.008c6.811,0,13.623,0.061,20.433-0.027c1.747-0.021,2.762,1.15,2.172,2.885    c-0.849,2.495-2.063,3.512-4.727,3.576c-0.842,0.021-1.685,0.004-2.526,0.004c-0.841,0-1.682,0-2.599,0.21    c3.15,1.193,6.3,2.388,9.449,3.58c-0.023,0.138-0.045,0.275-0.068,0.413c-0.735,0-1.478-0.062-2.206,0.012    c-3.262,0.326-6.262-0.375-9.156-1.929c-1.696-0.91-3.593-1.444-5.374-2.209c-0.402-0.173-0.966-0.583-0.983-0.907    c-0.039-0.77,0.431-1.383,1.249-1.572c0.279-0.065,0.583-0.025,0.875-0.026c3.479-0.001,6.958,0.002,10.437-0.002    c1.285-0.002,1.503-0.289,1.297-1.823c-0.374,0-0.766,0-1.159,0c-12.56,0-25.12,0-37.68,0.001c-1.813,0-2.089,0.191-2.777,1.875    c-0.512,1.252-1.026,2.502-1.537,3.754C59.122,96.58,59.136,96.622,59.155,96.945z"/>
		<path fill="#C1C1C1" d="M50.906,97.314c-0.252,1.754-0.574,2.064-2.039,2.064c-6.075,0-12.151,0.014-18.228-0.009    c-2-0.009-3.311-1.081-2.562-3.101c0.778-2.1,1.887-4.09,2.993-6.047c0.619-1.096,1.831-1.455,3.043-1.459    c6.662-0.024,13.324-0.014,19.985-0.01c0.135,0,0.269,0.055,0.399,0.082c-0.18,1.697-0.587,2.083-2.161,2.083    c-5.161,0-10.323,0.042-15.483-0.026c-1.539-0.021-2.601,0.301-3.035,1.95c-0.239,0.907-0.758,1.74-1.123,2.616    c-0.561,1.348-0.235,1.85,1.21,1.852c5.27,0.008,10.541,0.002,15.812,0.002C50.109,97.314,50.499,97.314,50.906,97.314z"/>
		<path fill="#C1C1C1" d="M155.997,97.314c-0.358,1.826-0.629,2.063-2.224,2.064c-6.402,0-12.806,0-19.209-0.001    c-0.256,0-0.515,0.009-0.77-0.007c-1.809-0.102-2.811-1.428-2.273-3.141c0.326-1.041,0.803-2.041,1.277-3.026    c0.107-0.222,0.488-0.425,0.754-0.438c0.985-0.052,1.977-0.021,2.963-0.021c0.291,0,0.58,0,1.077,0    c-0.435,1.053-0.819,1.98-1.202,2.91c-0.539,1.312-0.33,1.647,1.084,1.654c3.477,0.014,6.951,0.004,10.428,0.004    C150.57,97.314,153.236,97.314,155.997,97.314z"/>
		<path fill="#C1C1C1" d="M199.482,96.918c0.675,0.146,1.25,0.377,1.824,0.38c5.346,0.028,10.689,0.017,16.033,0.017    c0.396,0,0.795,0,1.195,0c-0.051,1.578-0.514,2.063-1.907,2.063c-6.187,0.003-12.372,0.004-18.56,0    c-2.435-0.001-3.459-1.494-2.592-3.758c0.014-0.034,0.035-0.065,0.049-0.099c1.207-2.931,1.74-3.19,5.549-2.668    c-0.254,0.66-0.494,1.299-0.743,1.936C200.082,95.43,199.823,96.066,199.482,96.918z"/>
		<path fill="#C1C1C1" d="M147.744,95.176c-2.747,0-5.495,0.008-8.24-0.004c-1.051-0.004-1.134-0.188-0.742-1.174    c0.354-0.896,0.938-1.273,1.93-1.268c5.271,0.031,10.545,0.002,15.818,0.033c0.467,0.004,1.207,0.164,1.338,0.465    c0.26,0.59-0.877,1.928-1.535,1.938c-1.646,0.023-3.295,0.009-4.943,0.01C150.161,95.176,148.952,95.176,147.744,95.176z"/>
		<path fill="#C1C1C1" d="M220.493,92.848c-0.646,2.225-0.777,2.328-2.709,2.328c-4.823,0-9.646,0-14.47,0c-0.392,0-0.783,0-1.164,0    c-0.131-1.646,0.539-2.428,1.968-2.429c5.041-0.003,10.083-0.004,15.125,0.002C219.626,92.749,220.007,92.809,220.493,92.848z"/>
		<path fill="#C1C1C1" d="M139.084,73.348c0-0.971,0-1.939,0-2.927c0.798-0.151,0.798-0.151,1.286,1.339    c0.651-0.293,0.055-1.853,1.382-1.422c0,1.02,0,2.016,0,3.01c-0.12,0.002-0.24,0.004-0.359,0.004    c-0.035-0.438-0.074-0.877-0.11-1.32c-0.285,0.443-0.564,0.882-0.847,1.318c-0.258-0.391-0.518-0.779-0.763-1.147    c-0.077,0.353-0.167,0.767-0.258,1.184C139.305,73.372,139.193,73.359,139.084,73.348z"/>
		<path fill="#C1C1C1" d="M137.393,73.465c-0.838-0.888,0.512-2.496-1.197-3.033c0.798,0,1.594,0,2.389,0    C136.994,70.893,138.273,72.605,137.393,73.465z"/>
		<path fill="#C1C1C1" d="M121.559,62.471c0.235-0.837,0.375-1.716,0.719-2.507c5.533-12.713,11.087-25.417,16.647-38.118    c1.335-3.048,3.769-4.773,6.984-5.191c6.278-0.815,12.579-1.469,18.87-2.188c6.945-0.794,13.895-1.577,20.838-2.404    c0.384-0.046,0.837-0.376,1.066-0.708c0.496-0.718,0.918-1.5,1.283-2.295c0.535-1.164,1.459-1.676,2.672-1.815    c7.672-0.879,15.344-1.773,23.021-2.615c0.551-0.06,1.396,0.094,1.642,0.459c0.229,0.337-0.019,1.186-0.31,1.651    c-4.828,7.729-9.697,15.434-14.556,23.145c-0.679,1.075-1.754,1.395-2.912,1.499c-6.709,0.604-13.418,1.206-20.131,1.763    c-0.756,0.062-1.186,0.323-1.523,0.981c-0.672,1.3-1.411,2.564-2.131,3.839c-0.698,1.236-1.733,1.89-3.176,2.038    c-9.723,0.999-19.441,2.021-29.16,3.064c-2.022,0.218-3.51,1.156-4.36,3.164c-2.91,6.873-5.905,13.708-8.896,20.546    c-0.347,0.795-0.779,1.587-1.332,2.246c-0.686,0.822-1.818,0.89-2.263,0.055c-1.055-1.984-1.906-4.08-2.83-6.135    c-0.056-0.127-0.027-0.289-0.037-0.437C121.644,62.497,121.602,62.482,121.559,62.471z M163.531,22.947    c-2.368,0.173-4.618,0.463-6.869,0.457c-1.477-0.004-2.24,0.533-2.528,1.905c-0.2,0.968-0.864,1.21-1.767,1.251    c-1.752,0.078-3.501,0.229-5.25,0.374c-0.314,0.025-0.735,0.064-0.91,0.267c-1.176,1.372-2.299,2.789-3.637,4.434    c3.273-0.313,6.199-0.594,9.263-0.887c-0.251,0.788-0.451,1.416-0.688,2.161c2.508-0.156,4.836-0.371,7.168-0.417    c1.227-0.024,2.047-0.335,2.291-1.622c0.164-0.851,0.713-1.163,1.56-1.216c1.715-0.106,3.424-0.288,5.133-0.456    c0.281-0.028,0.653-0.048,0.815-0.226c1.242-1.361,2.441-2.76,3.871-4.391c-3.207,0.281-6.06,0.531-9.055,0.794    C163.146,24.5,163.316,23.808,163.531,22.947z M198.506,10.119c-4.068,3.364-4.863,7.976-5.785,12.575    c0.396-0.138,0.719-0.342,0.891-0.634c1.521-2.586,3.054-5.168,4.503-7.796C198.799,13.021,198.809,11.652,198.506,10.119z     M193.927,22.523c0.093,0.107,0.183,0.215,0.271,0.322c0.364-0.249,0.788-0.441,1.083-0.755c1.098-1.173,2.104-2.435,3.24-3.566    c0.85-0.845,1.847-1.539,3.23-0.792c-0.12-0.585-0.18-1.023-0.304-1.44c-0.327-1.09-0.88-1.339-1.771-0.683    C197.189,17.444,195.609,20.029,193.927,22.523z M189.062,18.531c0.054,0.083,0.106,0.166,0.16,0.248    c0.201-0.046,0.406-0.085,0.607-0.139c1.268-0.341,1.445-0.214,1.436,1.134c-0.006,0.728-0.105,1.456-0.117,2.184    c-0.002,0.247,0.142,0.496,0.217,0.743c0.219-0.197,0.582-0.365,0.628-0.595c0.294-1.535,0.559-3.078,0.745-4.629    c0.059-0.492-0.152-1.016-0.24-1.524c-0.128-0.059-0.258-0.118-0.387-0.176C191.096,16.694,190.077,17.613,189.062,18.531z     M190.238,24.024c0.057,0.116,0.113,0.232,0.17,0.349c1.16,0,2.324,0.025,3.482-0.023c0.205-0.008,0.397-0.319,0.596-0.491    c-0.227-0.167-0.443-0.463-0.678-0.478c-0.914-0.056-1.834-0.076-2.744,0.008C190.771,23.416,190.514,23.802,190.238,24.024z     M191.043,26.828c0.559-0.6,1.043-1.122,1.605-1.729C190.992,24.912,190.963,24.945,191.043,26.828z"/>
		<path fill="#C1C1C1" d="M118.351,55.402c-0.517-1.17-0.959-2.163-1.393-3.158c-0.875-2.013-1.814-4.001-2.603-6.047    c-0.75-1.952-2.217-2.907-4.148-3.119c-9.132-1-18.271-1.936-27.406-2.895c-0.655-0.069-1.309-0.166-1.966-0.205    c-1.448-0.085-2.474-0.807-3.17-2.041c-0.755-1.338-1.461-2.708-2.276-4.007c-0.223-0.357-0.746-0.701-1.161-0.739    c-6.741-0.633-13.488-1.22-20.233-1.808c-1.48-0.128-2.564-0.738-3.389-2.063c-4.602-7.395-9.281-14.741-13.897-22.126    c-0.377-0.603-0.842-1.518-0.636-2.04c0.377-0.958,1.447-0.536,2.256-0.443C45.528,5.53,52.722,6.41,59.93,7.151    c1.884,0.194,3.196,0.86,3.871,2.658c0.593,1.583,1.565,2.341,3.435,2.536c12.702,1.331,25.391,2.8,38.075,4.303    c3.403,0.404,5.869,2.245,7.264,5.463c3.229,7.45,6.487,14.888,9.756,22.319c0.286,0.649,0.339,1.18,0.033,1.854    C121.019,49.243,119.74,52.23,118.351,55.402z M73.996,31.589c-0.237-0.466-0.374-0.755-0.527-1.035    c-3.776-6.856-7.57-13.703-11.312-20.576c-0.449-0.825-1.032-1.135-1.896-1.221c-1.784-0.178-3.562-0.412-5.342-0.613    C52.91,7.918,50.9,7.703,48.692,7.461c1.524,2.56,2.936,4.93,4.456,7.481c-3.471-0.224-6.717-0.433-10.163-0.655    c1.085,1.73,2.211,3.198,2.982,4.832c1.116,2.363,2.743,3.512,5.383,3.107c0.423-0.065,0.874,0.06,1.312,0.081    c1.625,0.08,3.249,0.153,5.058,0.237c-1.531-2.572-2.968-4.987-4.5-7.561c3.618,0.233,6.974,0.443,10.328,0.677    c0.266,0.018,0.65,0.128,0.759,0.32c1.313,2.305,2.586,4.632,3.956,7.111c-3.591-0.183-6.964-0.354-10.545-0.536    c1.593,2.67,3.058,5.148,4.56,7.604c0.143,0.232,0.515,0.426,0.799,0.453C66.643,30.952,70.213,31.257,73.996,31.589z     M116.191,34.27c-1.117-2.559-2.128-4.942-3.218-7.29c-0.137-0.295-0.67-0.532-1.044-0.575c-3.672-0.409-7.349-0.774-11.025-1.146    c-0.775-0.079-1.552-0.137-2.473-0.218c1.28,2.625,2.484,5.092,3.771,7.73c-4.815-0.504-9.383-0.981-14.168-1.481    c1.47,2.814,2.824,5.436,4.224,8.033c0.118,0.218,0.536,0.352,0.83,0.385c2.799,0.316,5.601,0.603,8.403,0.893    c1.542,0.159,3.085,0.309,4.804,0.48c-1.366-2.808-2.644-5.435-4.022-8.27C107.027,33.31,111.494,33.777,116.191,34.27z     M70.605,22.15c1.365,2.444,2.641,4.657,3.836,6.913c0.36,0.681,0.827,0.919,1.542,0.984c2.041,0.185,4.076,0.424,6.115,0.634    c1.915,0.197,3.831,0.382,5.938,0.591c-1.363-2.627-2.631-5.073-4-7.713c4.888,0.495,9.547,0.966,14.397,1.457    c-1.317-2.688-2.522-5.185-3.779-7.655c-0.125-0.247-0.555-0.439-0.866-0.478c-3.123-0.385-6.251-0.736-9.378-1.09    c-1.507-0.171-3.014-0.33-4.719-0.516c1.467,2.829,2.828,5.455,4.273,8.243C79.422,23.054,75.134,22.615,70.605,22.15z"/>
	</g>
</g>
</svg>